<svg width="36" height="36" viewBox="0 0 36 36" fill="none" xmlns="http://www.w3.org/2000/svg">
<path d="M18.0015 24.7456V11.2456" stroke="black" stroke-width="8.75" stroke-linecap="round" stroke-linejoin="round"/>
<path d="M23.6265 19.1206L18.0015 24.7456L12.3765 19.1206" stroke="black" stroke-width="8.75" stroke-linecap="round" stroke-linejoin="round"/>
<path d="M2.2515 17.9956C2.2515 22.1728 3.91087 26.1788 6.86457 29.1325C9.81827 32.0862 13.8243 33.7456 18.0015 33.7456C22.1787 33.7456 26.1847 32.0862 29.1384 29.1325C32.0921 26.1788 33.7515 22.1728 33.7515 17.9956C33.7515 13.8184 32.0921 9.81237 29.1384 6.85867C26.1847 3.90498 22.1787 2.24561 18.0015 2.24561C13.8243 2.24561 9.81827 3.90498 6.86457 6.85867C3.91087 9.81237 2.2515 13.8184 2.2515 17.9956V17.9956Z" stroke="black" stroke-width="8.75" stroke-linecap="round" stroke-linejoin="round"/>
</svg>
