<svg width="1440" height="381" viewBox="0 0 1440 381" fill="none" xmlns="http://www.w3.org/2000/svg">
<path d="M0 35.3639L0 -98.6699L7372.44 -98.6699V380.738C7203.32 380.738 7053.88 380.738 6954.83 380.738C6806.27 380.738 6100.71 351.877 5831.53 323.892C5562.36 295.906 5197.47 208.171 4921.65 180.968C4645.83 153.765 4282.1 112.602 4115.48 102.446C3948.86 92.2895 4005.59 68.3488 3323.79 102.446C2642 136.543 2757.07 211.344 1940.31 180.968C1123.55 150.592 651.648 21.3164 430.914 5.82797C283.758 -4.49756 143.542 7.15002 0 35.3639Z" fill="url(#paint0_linear_2_89)"/>
<defs>
<linearGradient id="paint0_linear_2_89" x1="3686.22" y1="380.738" x2="3686.22" y2="-98.6699" gradientUnits="userSpaceOnUse">
<stop stop-color="#FEFAF7"/>
<stop offset="1" stop-color="#FFFCFA"/>
</linearGradient>
</defs>
</svg>
